<svg width="118" height="39" viewBox="0 0 118 39" fill="none" xmlns="http://www.w3.org/2000/svg">
<path d="M102.162 31.1701C97.6725 31.1701 94.8801 28.001 94.8801 23.1769C94.8801 18.3528 97.6725 15.1801 102.162 15.1801C106.542 15.1801 109.335 18.3493 109.335 23.1769C109.335 28.0045 106.381 31.1701 102.162 31.1701ZM101.725 8.282C92.4716 8.50032 86.4467 14.2505 86.4467 23.1769C86.4467 32.1033 92.0807 38.0683 100.739 38.0683C104.518 38.0683 107.803 36.5894 109.828 33.9625L110.923 36.5365C111.051 36.8664 111.277 37.1487 111.572 37.3447C111.866 37.5408 112.214 37.641 112.567 37.6316H116.441C116.63 37.649 116.821 37.6244 117 37.5598C117.178 37.4951 117.341 37.3919 117.475 37.2575C117.61 37.1231 117.713 36.9608 117.777 36.782C117.842 36.6032 117.867 36.4124 117.849 36.2231V23.8318C117.849 14.3033 111.388 8.06368 101.697 8.282H101.725ZM64.2558 21.9726C64.4213 17.645 67.3228 14.9055 70.8828 14.9055C73.7843 14.9055 75.5378 16.5499 76.14 19.131L64.2558 21.9726ZM19.5358 21.7226C17.7735 21.7208 16.017 21.52 14.2997 21.124L19.49 7.08126L24.6945 21.1416C23.0032 21.5273 21.274 21.7222 19.5393 21.7226H19.5358ZM84.8093 21.3705C83.8762 13.0991 79.1753 8.282 71.0764 8.282C67.1495 8.28198 63.3827 9.83855 60.6014 12.6107C57.82 15.3828 56.2509 19.1444 56.2378 23.0713C56.2378 23.4727 56.2519 23.8706 56.2801 24.265C56.2801 24.3706 56.2801 24.4727 56.3013 24.5748C56.3224 24.8565 56.3505 25.1347 56.3858 25.4129C56.4069 25.5995 56.435 25.765 56.4632 25.9657C56.4984 26.2087 56.5407 26.4481 56.5864 26.67C56.6111 26.8003 56.6393 26.9341 56.6675 27.0644C56.7449 27.4165 56.8294 27.7686 56.9245 28.0855C56.9839 28.2881 57.0557 28.4868 57.1393 28.6806C53.8188 31.6948 50.9806 31.2864 50.9806 31.2864C49.1848 31.2864 48.1636 29.9694 48.1636 27.8109V1.08456C48.1641 0.942003 48.1364 0.80076 48.082 0.668967C48.0277 0.537173 47.9478 0.417428 47.847 0.316626C47.7462 0.215824 47.6265 0.13595 47.4947 0.081611C47.3629 0.0272722 47.2216 -0.000459355 47.0791 5.75496e-06H41.0366C40.8942 5.75496e-06 40.7532 0.0280746 40.6216 0.0825781C40.49 0.137082 40.3704 0.216948 40.2697 0.317658C40.169 0.418367 40.0891 0.537942 40.0346 0.669525C39.9801 0.801109 39.952 0.942133 39.952 1.08456V9.88769C37.9404 13.3774 35.0701 16.295 31.6137 18.3634L25.1417 1.74303L25.0149 1.42261C24.8526 1.00746 24.5689 0.650943 24.2007 0.39965C23.8326 0.148357 23.3972 0.013986 22.9515 0.0141045H16.3667C15.92 0.013536 15.4835 0.147617 15.1141 0.398876C14.7448 0.650135 14.4597 1.0069 14.2962 1.42261L3.19368 30.0469L0.728784 35.8569C0.657366 36.0266 0.629034 36.2112 0.646258 36.3945C0.663482 36.5778 0.725764 36.7539 0.827541 36.9073C0.929319 37.0606 1.06743 37.1865 1.2296 37.2735C1.39177 37.3606 1.57294 37.4062 1.757 37.4063H7.84881C8.07902 37.4085 8.30423 37.3392 8.49343 37.2081C8.68263 37.0769 8.8265 36.8902 8.90518 36.6739L9.14812 36.0119C9.20798 35.8886 9.26432 35.7513 9.31714 35.6104L12.018 28.1806L12.2116 27.5785C17.0027 28.7907 22.0192 28.7992 26.8143 27.6031L27.0009 28.1806L28.2615 31.5786L30.1243 36.6774C30.2025 36.8941 30.3462 37.081 30.5355 37.2122C30.7248 37.3435 30.9503 37.4125 31.1806 37.4098H37.5823C37.7663 37.41 37.9476 37.3645 38.1098 37.2775C38.272 37.1904 38.41 37.0644 38.5116 36.9109C38.6131 36.7574 38.675 36.581 38.6916 36.3977C38.7083 36.2144 38.6792 36.0298 38.6069 35.8605L36.4942 30.9307L34.0927 24.7579C36.2027 23.587 38.1671 22.171 39.945 20.5395V27.6876C39.945 34.3393 43.2445 37.9979 49.8362 37.9979C54.273 37.9979 56.8259 36.6668 60.4281 34.0717C63.0163 36.614 66.6749 38.0542 71.0694 38.0542C74.7632 38.0542 78.8478 36.8182 81.781 34.7266L81.8409 34.6808L82.2388 34.3886L82.3656 34.2724C83.1463 33.6424 83.8666 32.941 84.5171 32.1772C84.6108 32.0657 84.6804 31.9361 84.7217 31.7964C84.7629 31.6567 84.7748 31.51 84.7566 31.3655C84.7384 31.221 84.6905 31.0818 84.616 30.9567C84.5414 30.8316 84.4418 30.7232 84.3234 30.6384L80.5873 27.9341C80.3408 27.7514 80.0362 27.6646 79.7304 27.6898C79.4246 27.7151 79.1385 27.8507 78.9253 28.0714C78.2076 28.8316 77.3658 29.4639 76.4358 29.9412C74.9981 30.6921 73.4058 31.0995 71.7842 31.1314C68.5517 31.1314 66.4706 29.818 65.3227 27.3566L83.6649 23.0853C84.4854 22.9198 84.9255 22.3811 84.8164 21.3881" fill="#00484C"/>
</svg>
