<svg width="259" height="84" viewBox="0 0 259 84" fill="none" xmlns="http://www.w3.org/2000/svg">
<path d="M257.255 4.8165C257.481 4.5921 257.854 4.27555 257.882 3.9308C258.085 3.14917 258.434 2.27539 258.106 1.62383C257.869 1.11863 256.717 0.78143 256.08 0.937522C252.866 1.61173 249.639 2.45831 246.584 3.31899C244.272 3.99757 241.961 4.67613 239.716 5.39482L236.302 6.39968L232.822 7.36442C232.144 7.58664 231.283 7.51614 230.803 7.8587C230.057 8.49179 229.323 9.40351 229.213 10.3315C229.13 10.9147 230.241 11.769 231.008 12.1442C231.643 12.4391 235.787 11.4245 239.892 10.025C243.998 8.6256 248.118 7.05379 248.901 6.80556L249.31 7.32486C246.333 8.50426 243.382 9.78991 240.231 11.4062C236.215 13.403 231.852 15.8226 226.888 19.2341C225.344 20.2878 223.907 21.3155 222.297 22.3291L217.613 25.2777L208.313 31.215C205.173 33.1099 201.967 34.9647 198.868 36.7935C195.662 38.6483 192.522 40.5432 189.331 42.2257L179.635 47.4713L178.439 48.1022L177.176 48.693L174.716 49.9147L169.796 52.3582L164.876 54.8016L159.838 56.9924L154.8 59.1832C153.112 59.878 151.45 60.6791 149.762 61.374L139.542 65.3968L129.218 68.9946C122.27 71.2027 115.296 73.3045 108.218 74.9814C94.0614 78.3351 79.5929 80.414 65.2014 80.278C56.2477 80.2744 47.1781 79.5673 38.4717 77.814C29.6591 76.0867 21.0633 73.4054 13.1635 69.4276C11.9992 68.8118 10.7026 68.1157 9.53832 67.4999C8.348 66.7779 7.14358 66.2282 6.0454 65.6525C3.80892 64.5672 1.82286 63.8148 0.122965 64.231C2.87756 67.8921 6.72278 70.9484 10.9691 73.3433C15.2415 75.8445 19.9151 77.6844 24.8293 79.1275C32.0081 81.3111 39.4039 82.5407 46.8419 83.2532L52.398 83.6383C54.2279 83.7533 56.1381 83.736 57.9681 83.851C58.8701 83.8553 59.8382 83.8998 60.7401 83.9042L63.5523 83.8913C65.3964 83.8339 67.2665 83.8827 69.1105 83.8253C82.0852 83.4636 94.9742 81.6027 107.603 78.6793L117.059 76.3639L126.344 73.5835L128.655 72.9049L130.941 72.1201L135.511 70.5505L140.082 68.9808C141.584 68.4443 143.059 67.8014 144.601 67.1987C147.618 65.9532 150.661 64.8139 153.678 63.5684L162.571 59.6453C164.047 59.0025 165.522 58.3596 167.038 57.6507L171.412 55.5097L180.161 51.2278L188.726 46.6531C191.558 45.1149 194.457 43.6167 197.264 41.9722L205.685 37.0388C207.068 36.2496 208.491 35.3943 209.875 34.6051L213.973 32.025C217.193 29.9979 220.465 28.1832 223.803 26.4086C225.505 25.5414 227.075 24.5939 228.751 23.6205C230.387 22.7131 231.996 21.6995 233.606 20.6859C236.68 18.7509 239.86 16.7899 242.907 14.7486C244.305 13.787 245.702 12.8255 247.099 11.8639C246.217 13.3188 245.375 14.7075 244.492 16.1623C243.315 18.2525 242.177 20.2764 241.238 22.4208C241.024 22.9238 241.508 24.2128 242.011 24.4275C242.514 24.6421 243.459 24.1294 244.15 23.7348C244.549 23.5245 244.698 22.9814 244.872 22.5445C245.663 20.9433 246.493 19.276 247.35 17.7149C248.206 16.1538 249.169 14.5667 250.158 13.0858C252.282 10.032 254.59 7.27083 257.255 4.8165Z" fill="#00484C"/>
</svg>
